HIERARCHY
ROOT Hips
{
	OFFSET -3.958830 18.904000 13.208200
	CHANNELS 6 Xposition Yposition Zposition Zrotation Yrotation Xrotation 
	JOINT LHipJoint
	{
		OFFSET 0.000000 0.000000 0.000000
		CHANNELS 3 Zrotation Yrotation Xrotation
		JOINT LeftUpLeg
		{
			OFFSET 1.800000 -1.400000 0.085000
			CHANNELS 3 Zrotation Yrotation Xrotation
			JOINT LeftLeg
			{
				OFFSET 2.215000 -6.000000 0.000000
				CHANNELS 3 Zrotation Yrotation Xrotation
				JOINT LeftFoot
				{
					OFFSET 2.500000 -6.900000 0.000000
					CHANNELS 3 Zrotation Yrotation Xrotation
					JOINT LeftToeBase
					{
						OFFSET 0.200000 -0.500000 1.950000
						CHANNELS 3 Zrotation Yrotation Xrotation
						End Site
						{
							OFFSET 0.000000 0.000000 0.000000
						}
					}
				}
			}
		}
	}
	JOINT RHipJoint
	{
		OFFSET 0.000000 0.000000 0.000000
		CHANNELS 3 Zrotation Yrotation Xrotation
		JOINT RightUpLeg
		{
			OFFSET -1.800000 -1.400000 0.085000
			CHANNELS 3 Zrotation Yrotation Xrotation
			JOINT RightLeg
			{
				OFFSET -2.215000 -6.000000 0.000000
				CHANNELS 3 Zrotation Yrotation Xrotation
				JOINT RightFoot
				{
					OFFSET -2.500000 -6.900000 0.000000
					CHANNELS 3 Zrotation Yrotation Xrotation
					JOINT RightToeBase
					{
						OFFSET -0.200000 -0.500000 1.950000
						CHANNELS 3 Zrotation Yrotation Xrotation
						End Site
						{
							OFFSET 0.000000 0.000000 0.000000
						}
					}
				}
			}
		}
	}
	JOINT LowerBack
	{
		OFFSET 0.000000 0.000000 0.000000
		CHANNELS 3 Zrotation Yrotation Xrotation
		JOINT Spine
		{
			OFFSET -0.087000 1.940000 -0.288900
			CHANNELS 3 Zrotation Yrotation Xrotation
			JOINT Spine1
			{
				OFFSET 0.000000 1.950000 0.060000
				CHANNELS 3 Zrotation Yrotation Xrotation
				JOINT Neck
				{
					OFFSET 0.000000 0.000000 0.000000
					CHANNELS 3 Zrotation Yrotation Xrotation
					JOINT Neck1
					{
						OFFSET 0.000000 1.600000 0.340000
						CHANNELS 3 Zrotation Yrotation Xrotation
						JOINT Head
						{
							OFFSET 0.000000 1.667000 -0.240000
							CHANNELS 3 Zrotation Yrotation Xrotation
							End Site
							{
								OFFSET 0.000000 0.000000 0.000000
							}
						}
					}
				}
				JOINT LeftShoulder
				{
					OFFSET 0.000000 0.000000 0.000000
					CHANNELS 3 Zrotation Yrotation Xrotation
					JOINT LeftArm
					{
						OFFSET 2.700000 1.550000 -0.730000
						CHANNELS 3 Zrotation Yrotation Xrotation
						JOINT LeftForeArm
						{
							OFFSET 5.450000 0.000000 0.000000
							CHANNELS 3 Zrotation Yrotation Xrotation
							JOINT LeftHand
							{
								OFFSET 3.450000 0.000000 0.000000
								CHANNELS 3 Zrotation Yrotation Xrotation
								JOINT LeftHandIndex1
								{
									OFFSET 0.750000 0.000000 0.000000
									CHANNELS 3 Zrotation Yrotation Xrotation
									End Site
									{
										OFFSET 0.000000 0.000000 0.000000
									}
								}
							}
						}
					}
				}
				JOINT RightShoulder
				{
					OFFSET 0.000000 0.000000 0.000000
					CHANNELS 3 Zrotation Yrotation Xrotation
					JOINT RightArm
					{
						OFFSET -2.700000 1.550000 -0.730000
						CHANNELS 3 Zrotation Yrotation Xrotation
						JOINT RightForeArm
						{
							OFFSET -5.450000 0.000000 0.000000
							CHANNELS 3 Zrotation Yrotation Xrotation
							JOINT RightHand
							{
								OFFSET -3.450000 0.000000 0.000000
								CHANNELS 3 Zrotation Yrotation Xrotation
								JOINT RightHandIndex1
								{
									OFFSET -0.750000 0.000000 0.000000
									CHANNELS 3 Zrotation Yrotation Xrotation
									End Site
									{
										OFFSET 0.000000 0.000000 0.000000
									}
								}
							}
						}
					}
				}
			}
		}
	}
}
MOTION
Frames: 14
Frame Time: 0.016667
-0.093680 16.811880 -8.173630 -4.232872 13.835858 1.786538 -15.328023 13.935071 2.186437 4.134194 -1.595809 -3.995343 0.440004 6.151189 27.982044 -0.328940 5.688913 2.696160 0.671210 0.305010 0.493540 18.236041 -9.059930 4.486156 -11.425793 5.058487 -43.236696 17.784473 -17.624908 46.074986 -1.298336 -8.382528 1.511650 0.220900 0.072390 0.242070 -3.507478 -4.628991 -8.179265 12.623155 -10.553379 22.105461 0.689765 -8.860003 2.703161 0.483249 -4.717319 -10.673943 -11.263986 5.834161 32.206117 -0.882610 4.037200 -21.456060 -9.599238 -17.513840 2.098793 0.259110 -19.584390 3.684286 -91.030755 -56.780164 55.369971 -3.512933 3.560145 0.737470 -0.010180 0.105270 0.244280 9.133353 17.802778 7.357270 7.887461 6.442861 -2.993640 54.664663 59.052159 27.995626 1.960948 -1.715268 -0.179870 0.238630 -0.124410 -0.321230 
-0.083910 16.802230 -8.177320 -4.302589 13.519098 1.338766 -15.334161 13.964899 2.196161 4.353745 -1.535469 -3.389101 0.144565 6.288186 27.830037 -0.304324 5.719725 2.679380 0.683650 0.317080 0.506640 18.228959 -9.005143 4.520617 -11.462546 5.072709 -43.539181 17.965121 -17.797971 46.360331 -1.334637 -8.433691 1.488834 0.214320 0.038700 0.243510 -3.480477 -4.750409 -8.221063 12.770956 -10.794423 23.420938 0.560752 -8.899967 2.124109 0.545071 -5.043372 -10.813708 -12.126993 5.741561 32.658928 -0.754040 3.694510 -22.688710 -9.700388 -17.789844 1.721570 0.797432 -20.283450 3.704159 -91.359007 -54.350024 53.530494 -3.446815 3.590653 0.761900 -0.044520 0.134440 0.240290 9.131317 18.234522 7.842248 7.355652 5.478751 -3.009235 59.488062 59.359077 30.567812 2.007683 -1.701694 -0.165300 0.231110 -0.133160 -0.321630 
-0.069610 16.770060 -8.171840 -4.521429 11.936660 1.141737 -15.348946 13.954258 2.204297 4.637999 -1.452595 -2.592980 -0.854067 6.741449 27.669668 -0.264808 5.841867 2.642689 0.680740 0.311530 0.514630 18.235699 -8.808241 4.671136 -11.148154 5.656754 -45.153986 18.128188 -17.995744 47.271174 -1.390375 -8.552427 1.460078 0.200070 0.019990 0.229320 -3.427253 -4.964116 -8.310823 12.816922 -11.220329 25.001941 0.561746 -9.045113 1.069931 0.692997 -5.699705 -11.085042 -13.683900 6.603735 33.226456 -0.593040 3.919100 -23.931220 -10.206967 -17.964945 1.628793 0.249225 -20.390539 3.928770 -92.845595 -49.979310 50.390723 -3.372814 3.595131 0.796730 -0.078070 0.158320 0.235860 9.429821 18.833644 8.155116 6.317162 5.099020 -2.769447 68.011120 59.054903 35.050488 2.085212 -1.649504 -0.169920 0.249290 -0.134360 -0.325120 
-0.058040 16.728100 -8.176190 -4.692902 10.120400 0.948142 -15.362460 13.935716 2.235574 4.972837 -1.391035 -1.828739 -2.260094 7.359889 27.595083 -0.231811 6.028886 2.576548 0.673840 0.294950 0.518210 18.243886 -8.626426 4.795167 -10.170721 6.533415 -46.859537 17.231676 -17.463102 48.068233 -1.396526 -8.469910 1.488476 0.184020 -0.002200 0.219230 -3.378158 -5.142386 -8.382417 12.868311 -11.641982 26.883434 0.500740 -9.124460 0.011925 0.876732 -6.545455 -11.491546 -15.636260 7.594540 33.549215 -0.702810 4.146730 -25.439780 -10.531660 -17.953416 1.804964 -0.672300 -19.680751 3.914450 -94.803606 -45.703495 47.089362 -3.300688 3.588153 0.845970 -0.114490 0.181840 0.226320 9.497855 19.489400 8.413538 6.190378 4.948598 -2.749170 75.964515 57.051362 38.130318 2.130226 -1.614499 -0.181730 0.264460 -0.125010 -0.335990 
-0.042350 16.690150 -8.169690 -5.188121 9.074067 0.219242 -15.363564 13.977149 2.282837 5.683255 -1.543631 -1.129890 -3.341145 7.927746 28.161567 -0.195983 6.306120 2.484241 0.658590 0.251870 0.540300 18.237573 -8.568925 4.789847 -8.787981 6.950804 -47.276361 16.409638 -16.620331 47.435599 -1.348516 -8.108116 1.599257 0.154110 -0.024220 0.211080 -3.348963 -5.289204 -8.397582 13.587324 -12.333086 29.238913 0.136448 -9.215198 -1.097239 1.170159 -7.052835 -11.858614 -17.064023 8.146328 34.078603 -0.917650 4.207090 -27.259470 -11.291785 -18.149415 1.612824 -1.816262 -19.756540 3.696527 -95.436265 -40.750861 41.969975 -3.231725 3.545403 0.911320 -0.154610 0.209630 0.208170 9.741275 19.890782 9.071890 7.053325 3.123371 -3.259956 82.802733 54.473217 39.750969 2.144539 -1.600130 -0.204270 0.289330 -0.110510 -0.358630 
-0.026250 16.655480 -8.168660 -5.543725 7.705079 -0.248189 -15.372668 14.012214 2.368467 6.079445 -1.909715 -1.185513 -4.539988 8.653982 29.757636 -0.064916 6.617692 2.355735 0.638070 0.226170 0.540950 18.217954 -8.516133 4.790981 -7.099765 7.386118 -47.890579 15.063571 -15.318734 46.289938 -1.247280 -7.572158 1.773642 0.098540 -0.079210 0.212810 -3.285021 -5.423656 -8.444160 13.909061 -12.877771 31.789040 -0.118688 -9.076146 -2.193203 1.765596 -7.079394 -12.803104 -17.630399 8.366358 35.075335 -1.591620 4.527930 -27.425040 -11.954709 -18.574974 2.201789 -3.582561 -18.199879 2.892713 -96.786492 -37.524672 38.422744 -3.153796 3.566259 0.922660 -0.192950 0.237560 0.188020 9.302449 20.450171 10.032833 9.663785 0.756118 -4.141177 87.657644 51.755671 39.516163 2.162368 -1.643585 -0.167980 0.237740 -0.117610 -0.359660 
-0.017750 16.621760 -8.161170 -5.332188 5.220989 -0.669652 -15.407458 14.083954 2.491831 5.352597 -2.008914 -1.047991 -5.115657 9.143088 31.269540 0.017561 6.900591 2.254579 0.600690 0.168180 0.538580 18.171856 -8.474692 4.770892 -5.052136 8.107207 -47.787011 13.129499 -13.350613 44.496293 -1.096742 -6.793148 2.020846 0.049700 -0.102660 0.212280 -3.136845 -5.606567 -8.490506 12.798158 -12.392526 34.644219 0.235805 -8.282433 -3.084354 2.212720 -7.108459 -13.500051 -18.126321 8.446382 35.778812 -2.040120 4.625790 -28.040790 -12.709625 -18.585065 2.529060 -5.899540 -17.059519 2.158612 -98.613490 -35.431754 36.196604 -3.117670 3.543349 0.961420 -0.221840 0.255410 0.164490 9.344054 20.838697 10.920832 12.441529 -1.783355 -5.279501 90.700459 50.324219 39.131079 2.169512 -1.641882 -0.174200 0.226160 -0.100100 -0.372820 
-0.012770 16.596480 -8.146820 -4.864521 2.299007 -1.322075 -15.452133 14.208965 2.672753 4.069939 -2.072564 -0.841962 -5.575506 9.597965 32.965925 0.115873 7.183561 2.155791 0.581420 0.139510 0.556490 18.103648 -8.505618 4.625962 -2.368881 8.500619 -46.183291 10.631834 -10.822149 41.246009 -0.898875 -5.652996 2.400355 0.014870 -0.138780 0.196230 -2.941914 -5.836883 -8.495685 10.861785 -11.584075 37.875995 0.834317 -7.496732 -3.921493 2.668471 -7.229419 -14.105395 -18.833429 8.916382 36.460563 -2.337520 4.910280 -29.517480 -13.692982 -18.408237 3.031283 -9.290740 -15.264306 0.978930 -97.173866 -32.948783 31.333340 -3.081487 3.474083 1.004020 -0.265310 0.287570 0.143170 9.657647 21.215927 11.482740 15.166739 -3.635491 -6.573547 91.575336 48.442628 36.988172 2.178365 -1.618100 -0.178010 0.234630 -0.097130 -0.385920 
-0.012670 16.548460 -8.102810 -4.146575 1.422211 -1.899744 -15.494319 14.304416 2.805312 3.166961 -2.222026 -0.481711 -5.847541 9.857223 34.135583 0.176662 7.384951 2.076950 0.592090 0.146520 0.587030 18.048373 -8.537185 4.469941 -1.102224 8.088558 -45.169085 8.970121 -9.559013 39.413090 -0.802099 -5.053455 2.593674 0.011290 -0.179940 0.189370 -2.794661 -6.057766 -8.487416 9.038146 -11.427367 39.254833 1.439102 -7.909067 -3.669774 2.989074 -7.116947 -14.289757 -18.771593 9.645693 37.035970 -3.095710 5.693950 -30.220310 -14.822324 -18.047499 3.818208 -14.100410 -12.766745 -0.536033 -92.978837 -31.828865 26.568007 -3.072257 3.419088 1.030590 -0.293320 0.313400 0.129870 10.203187 20.870400 11.209283 18.492505 -3.746510 -7.940615 88.969271 48.014555 34.326792 2.182950 -1.598496 -0.175170 0.225050 -0.107730 -0.403570 
0.007060 16.481170 -8.019770 -4.368245 1.427153 -2.440993 -15.492091 14.377164 2.808404 3.493627 -2.135181 1.172324 -5.461138 9.805144 34.303391 0.190517 7.488016 2.037906 0.608030 0.153440 0.615500 18.047468 -8.548105 4.416468 -0.096084 7.813041 -45.236784 8.027268 -8.926227 38.062881 -0.743526 -4.674342 2.709835 0.018020 -0.210900 0.190900 -2.798044 -6.162719 -8.437265 9.641599 -12.580587 39.672391 0.900897 -8.963722 -3.412492 3.352390 -7.196963 -14.170408 -18.932006 10.326686 37.013619 -4.163010 6.360230 -30.536140 -16.340914 -17.718795 4.228043 -18.447387 -10.867185 -1.874326 -88.127042 -30.150072 21.756499 -3.074205 3.378111 1.050530 -0.307090 0.327660 0.119540 10.911100 20.264121 10.780742 21.866419 -3.721675 -9.158541 84.937128 46.989731 30.704726 2.165174 -1.589970 -0.175870 0.213810 -0.112660 -0.423650 
0.010670 16.423740 -7.937660 -4.314494 0.600549 -2.732192 -15.489533 14.406580 2.847718 3.372762 -2.052605 2.210100 -5.358832 9.940649 34.916713 0.210269 7.651281 1.979060 0.611650 0.149400 0.651330 18.044091 -8.573784 4.382508 1.174452 7.908181 -44.664177 7.029508 -8.094487 36.343222 -0.675115 -4.209633 2.865714 0.018580 -0.231480 0.193740 -2.785359 -6.164666 -8.438820 9.768986 -12.817718 39.938071 0.284353 -9.165292 -3.704722 3.682485 -6.746424 -13.711023 -18.017208 10.132447 37.865542 -5.379830 6.733670 -30.854190 -18.039915 -17.416732 3.989838 -21.873629 -10.067714 -2.681394 -82.088792 -24.061476 13.730559 -3.093931 3.295704 1.072640 -0.307590 0.344010 0.099740 11.826953 19.567869 10.385026 26.237416 -3.834388 -10.510689 77.461129 44.738663 24.861290 2.137253 -1.538770 -0.183790 0.217410 -0.110950 -0.447760 
0.012300 16.361320 -7.860660 -3.746880 -1.296498 -2.778337 -15.493648 14.358297 2.929687 2.324694 -1.859903 2.736361 -5.743224 10.348162 35.930168 0.245863 7.883622 1.898160 0.623050 0.168530 0.672040 18.049739 -8.565930 4.378911 2.538582 8.308437 -44.060741 5.370762 -6.953146 34.757974 -0.605498 -3.722612 3.030083 0.042220 -0.229970 0.190370 -2.760826 -6.098053 -8.470194 9.263403 -12.068498 40.117912 0.004351 -8.620365 -4.047167 3.679598 -6.504564 -13.041020 -17.590859 10.204754 38.542025 -5.442770 6.888910 -30.974750 -19.672171 -16.969975 3.292690 -24.984241 -10.533524 -2.825901 -75.248198 -17.178737 6.619179 -3.131215 3.208121 1.084540 -0.301280 0.354600 0.093160 13.456332 18.952184 9.987135 29.836163 -3.988888 -11.695045 69.117340 43.127271 19.980016 2.105925 -1.472740 -0.197140 0.244480 -0.107900 -0.458030 
0.018170 16.304160 -7.769960 -3.223533 -3.635306 -2.530969 -15.491528 14.281712 3.013102 0.912422 -1.672044 2.809284 -6.149659 10.743201 37.015892 0.320787 8.046426 1.825883 0.665230 0.227120 0.694450 18.067199 -8.528178 4.393498 3.321004 8.733768 -43.485333 4.981372 -6.339479 33.320159 -0.577297 -3.385635 3.140405 0.066220 -0.263100 0.195010 -2.760142 -6.036470 -8.494594 8.779977 -11.668923 39.974895 -0.211694 -8.447968 -4.920002 3.600073 -6.966577 -12.401920 -18.813620 11.429635 39.152163 -5.060040 7.384380 -31.578470 -21.836694 -15.554972 2.875188 -29.340898 -9.232767 -3.082421 -66.148188 -10.382576 0.788916 -3.139795 3.161666 1.086110 -0.324190 0.384260 0.097690 15.856660 17.850411 9.156509 32.382140 -3.552479 -12.301965 61.219828 41.036685 15.967067 2.106785 -1.425415 -0.167480 0.234310 -0.129960 -0.452170 
0.018370 16.254620 -7.679240 -2.826409 -6.716960 -2.139350 -15.518689 14.192932 3.090583 -0.253804 -1.675780 2.293042 -7.061881 11.507181 38.589884 0.424675 8.343441 1.721557 0.699240 0.265690 0.715990 18.068769 -8.386449 4.461923 3.989645 9.482028 -43.213499 5.213586 -6.055468 32.631936 -0.582334 -3.225797 3.195311 0.078320 -0.289810 0.198080 -2.692813 -6.100447 -8.551664 7.763751 -11.185367 40.015048 0.105632 -8.310876 -5.909131 3.589421 -7.592416 -11.736818 -20.324085 12.933656 39.382359 -5.457360 8.160750 -32.328020 -23.899300 -13.295809 2.604298 -34.190368 -6.399928 -3.772177 -56.191722 -6.644550 -1.873497 -3.149245 3.101660 1.097210 -0.348190 0.410740 0.110490 18.055499 16.191877 8.086407 34.396323 -3.045724 -12.723327 54.260758 40.009036 13.428787 2.112909 -1.381273 -0.149290 0.227610 -0.154840 -0.448930 
